<?xml version="1.0" encoding="UTF-8" standalone="no"?>
<!-- Created with Inkscape (http://www.inkscape.org/) -->

<svg
   xmlns:dc="http://purl.org/dc/elements/1.1/"
   xmlns:cc="http://creativecommons.org/ns#"
   xmlns:rdf="http://www.w3.org/1999/02/22-rdf-syntax-ns#"
   xmlns:svg="http://www.w3.org/2000/svg"
   xmlns="http://www.w3.org/2000/svg"
   xmlns:sodipodi="http://sodipodi.sourceforge.net/DTD/sodipodi-0.dtd"
   xmlns:inkscape="http://www.inkscape.org/namespaces/inkscape"
   width="141mm"
   height="55.738708mm"
   viewBox="0 0 141 55.738708"
   version="1.1"
   id="svg3628"
   inkscape:version="0.92.2 (5c3e80d, 2017-08-06)"
   sodipodi:docname="grimoirelab-logo-white.svg">
  <defs
     id="defs3622" />
  <sodipodi:namedview
     id="base"
     pagecolor="#ffffff"
     bordercolor="#666666"
     borderopacity="1.0"
     inkscape:pageopacity="0.0"
     inkscape:pageshadow="2"
     inkscape:zoom="1.9901258"
     inkscape:cx="-6.0616718"
     inkscape:cy="236.00537"
     inkscape:document-units="mm"
     inkscape:current-layer="layer1"
     showgrid="false"
     fit-margin-top="0"
     fit-margin-left="0"
     fit-margin-right="0"
     fit-margin-bottom="0"
     inkscape:window-width="3200"
     inkscape:window-height="1671"
     inkscape:window-x="0"
     inkscape:window-y="55"
     inkscape:window-maximized="1" />
  <metadata
     id="metadata3625">
    <rdf:RDF>
      <cc:Work
         rdf:about="">
        <dc:format>image/svg+xml</dc:format>
        <dc:type
           rdf:resource="http://purl.org/dc/dcmitype/StillImage" />
        <dc:title></dc:title>
      </cc:Work>
    </rdf:RDF>
  </metadata>
  <text x="70"  y="22" font-size="16"
        style="font-family: Sans;
               font-size  : 16;
               stroke     : #ffffff;
               fill       : #ffffff;">
    Grimoire
  </text>
  <text x="70"  y="48" font-size="13"
        style="font-family: Sans;
               font-size  : 13;
               stroke     : #ffffff;
               fill       : #ffffff;">
    Dashboard
  </text>
  <g
     inkscape:label="Capa 1"
     inkscape:groupmode="layer"
     id="layer1"
     transform="translate(-46.978947,-155.86773)">
    <path
       inkscape:connector-curvature="0"
       d="m 74.848303,155.86773 c -15.391606,0 -27.869356,12.47775 -27.869356,27.86962 0,15.39161 12.47775,27.86909 27.869356,27.86909 15.391871,0 27.869887,-12.47748 27.869887,-27.86909 0,-15.39187 -12.478016,-27.86962 -27.869887,-27.86962 z m -0.182827,2.32807 c 0,0 0.440796,-1.08056 0.837671,0 0.396875,1.08003 2.249487,6.43837 3.021012,12.12691 0,0 -3.370791,1.58459 -6.879166,0 0,0 0.462491,-6.19601 3.020483,-12.12691 z m -3.6195,12.59761 c -0.137319,1.61105 -1.49516,2.48523 -1.49516,2.48523 1.415521,2.54291 5.462587,2.86226 5.462587,2.86226 0,0 4.143904,-0.29342 5.506773,-2.86544 0,0 -1.376627,-0.84587 -1.547283,-2.45348 0,0 8.32776,-0.63764 15.387108,7.10592 0,0 -7.327106,-3.2049 -19.298973,0.0894 -12.036954,-3.04589 -19.251613,0.19949 -19.251613,0.19949 6.89663,-7.88802 15.236561,-7.42341 15.236561,-7.42341 z m 11.0363,9.20829 c 1.984375,0.33338 2.783681,0.16537 2.783681,0.16537 0.837671,0.92604 1.1684,1.67587 1.1684,1.67587 0,0 -8.807714,-1.28429 -10.803995,0 0.439208,-4.74927 5.865812,-2.00713 6.851914,-1.84124 z m -7.404364,1.84124 c -1.995753,-1.28429 -10.803996,0 -10.803996,0 0,0 0.330729,-0.74983 1.1684,-1.67587 0,0 0.799306,0.16801 2.783681,-0.16537 0.986631,-0.16589 6.412971,-2.90803 6.851915,1.84124 z m -10.07454,25.48572 c -2.735527,0.75909 -6.746875,-7.45278 -7.540625,-10.3632 -3.704167,-1.36684 -8.026136,-11.24453 -6.482292,-13.27282 5.103812,-8.9408 19.887407,-5.55625 19.887407,-5.55625 -10.671705,-1.54358 -15.081251,2.46935 -15.081251,2.46935 1.543579,-0.74956 3.456253,-0.95911 3.456253,-0.95911 -4.189413,7.40833 -2.221442,15.15824 -2.221442,15.15824 -0.617538,-12.17056 4.013465,-15.43394 4.013465,-15.43394 2.954072,-0.79375 4.453202,0 4.453202,0 -4.444207,1.65021 -4.966759,15.5321 -1.984375,24.25356 2.303198,6.73444 3.924829,-5.82083 3.924829,-5.82083 -0.04736,9.1776 -2.425171,9.525 -2.425171,9.525 z m 8.236215,-9.21967 c 0,0 -5.159375,-0.26352 -7.342188,-1.58644 l -2.637367,-14.2539 c 0,0 5.195094,-0.82894 10.134071,-0.42571 0,0 0.540015,0.43709 1.970617,0.44661 1.430337,-0.01 1.970352,-0.44661 1.970352,-0.44661 4.939242,-0.40296 9.869223,0.42598 9.869752,0.42571 l -2.373048,14.2539 c -2.182812,1.32292 -7.342187,1.58644 -7.342187,1.58644 -0.624152,0.84693 -3.625586,0.84693 -4.250002,0 z m 19.817556,-1.27317 c -0.79375,2.91041 -4.805363,11.12176 -7.540625,10.3632 0,0 -2.377546,-0.34767 -2.425171,-9.525 0,0 1.621631,12.55474 3.924829,5.82083 2.982648,-8.72199 2.459831,-22.60336 -1.984375,-24.25383 0,0 1.499129,-0.79375 4.453467,0 0,0 4.630737,3.26337 4.0132,15.43421 0,0 1.967971,-7.74991 -2.221442,-15.15851 0,0 1.912673,0.20955 3.456252,0.95911 0,2.7e-4 -4.409546,-4.01293 -15.08125,-2.46935 0,0 14.783594,-3.38429 19.887671,5.55625 1.543311,2.02829 -2.77839,11.90572 -6.482556,13.27309 z"
       id="path2766"
       style="stroke-width:0.26458332;stroke:#ffffff;stroke-opacity:1;fill:#ffffff;fill-opacity:1" />
    <polygon
       transform="matrix(0.26458333,0,0,0.26458333,39.750001,-82.556248)"
       points="113.312,1014.54 117.236,1014.499 116.503,1003.665 97.386,1024.728 118.041,1053.19 117.324,1023.341 109.847,1022.874 109.771,1026.585 113.832,1026.866 114.134,1040.808 102.278,1025.257 113.284,1012.737 "
       id="polygon2768"
       style="fill:#ffffff;fill-opacity:1" />
    <polygon
       transform="matrix(0.26458333,0,0,0.26458333,39.750001,-82.556248)"
       points="155.705,1026.585 155.628,1022.874 148.152,1023.339 147.435,1053.188 168.089,1024.728 148.972,1003.664 148.24,1014.499 152.164,1014.54 152.191,1012.737 163.197,1025.257 151.339,1040.806 151.644,1026.866 "
       id="polygon2770"
       style="fill:#ffffff;fill-opacity:1" />
  </g>
</svg>
